<?xml version="1.0" encoding="UTF-8"?>
<svg version="1.1" xmlns="http://www.w3.org/2000/svg" width="1180" height="931">
<path d="M0 0 C1.59521484 0.17740723 1.59521484 0.17740723 3.22265625 0.35839844 C21.33815303 2.47979004 38.58590877 6.62430125 56 12 C57.01932617 12.31404785 58.03865234 12.6280957 59.08886719 12.95166016 C61.84000527 13.81549716 64.57819625 14.70940955 67.3125 15.625 C68.08779053 15.87741455 68.86308105 16.1298291 69.66186523 16.38989258 C78.67923141 19.56102135 87.76709234 26.26931613 92.51171875 34.6796875 C96.91519834 43.99134347 99.18150304 54.91004043 96.0625 65.0625 C87.86515231 83.50653231 66.67801288 99.45168367 52.62860084 113.43986154 C49.98989729 116.06844342 47.35455399 118.70038959 44.71894836 121.33207703 C38.04479667 127.99522551 31.36637307 134.65408455 24.6875 141.3125 C17.45542865 148.52246097 10.22414956 155.73320722 2.99773914 162.9488427 C-0.12411122 166.06574844 -3.24837269 169.18020979 -6.3745867 172.29273856 C-7.8510627 173.76352013 -9.32636457 175.23546765 -10.80116272 176.70793152 C-12.5888775 178.49280285 -14.37836734 180.27589903 -16.17007446 182.0567627 C-20.43995582 186.32626782 -24.56025653 190.65952109 -28.48015976 195.25375652 C-31.04544199 198.20117642 -33.81524013 200.93872411 -36.58984375 203.6875 C-37.17923233 204.27547363 -37.76862091 204.86344727 -38.37586975 205.46923828 C-40.22737618 207.31522361 -42.08235817 209.15766892 -43.9375 211 C-45.20661373 212.2640885 -46.47549589 213.52840956 -47.74414062 214.79296875 C-50.8267632 217.86466724 -53.91250428 220.93320008 -57 224 C-45.69104381 237.5079199 -33.23178945 249.90580177 -20.765625 262.33203125 C-19.03377654 264.06201018 -17.30215203 265.79221332 -15.57073975 267.52262878 C-11.0554446 272.03414084 -6.53715259 276.54263945 -2.01818848 281.05047607 C2.60951158 285.66787058 7.23431398 290.28816547 11.859375 294.90820312 C20.90344694 303.94161214 29.9505953 312.97193335 39 322 C42.85359503 320.42402608 45.44983632 317.82253058 48.32452393 314.90925598 C49.11135107 314.12393377 49.11135107 314.12393377 49.91407371 313.32274646 C51.6704848 311.5672879 53.419648 309.80478166 55.16894531 308.04223633 C56.42703775 306.78194254 57.68557864 305.52209628 58.9445343 304.26266479 C61.65551006 301.54875459 64.36329714 298.83171592 67.06867218 296.11222267 C71.3507668 291.80785599 75.63994335 287.5105936 79.93011475 283.21427917 C86.72057322 276.41243373 93.506346 269.60593563 100.29009604 262.79740018 C112.42287374 250.62035933 124.56113365 238.4487897 136.70472217 226.28253001 C140.96352908 222.0153409 145.21950997 217.74535909 149.47320509 213.47307456 C152.12809802 210.80748922 154.7850609 208.14397411 157.44252586 205.48095322 C158.66884134 204.25118601 159.89428524 203.02054892 161.11876106 201.78894997 C166.75537056 196.12029351 172.3724348 190.47854421 178.47628403 185.30517101 C180.43713639 183.62556161 182.22147294 181.80733537 184 179.9375 C191.5340946 172.3444301 198.13555911 167.85359383 209.15234375 167.61938477 C221.31193682 167.65099311 230.03185032 170.34288441 239 179 C260.0156574 203.03879141 264.86809843 251.43108005 265.6875 281.875 C265.70712799 282.55243256 265.72675598 283.22986511 265.74697876 283.92782593 C266.18749925 299.6426131 265.82557636 315.30273998 265 331 C264.95536621 331.90427734 264.91073242 332.80855469 264.86474609 333.74023438 C262.23353861 380.7766561 241.27864824 425.14533664 216 464 C215.39714172 464.93087433 215.39714172 464.93087433 214.78210449 465.8805542 C211.99613743 470.18236535 209.19388341 474.47303706 206.37472534 478.75317383 C205.43522184 480.18105158 204.49835929 481.61067145 203.56448364 483.04223633 C192.46352382 500.02416803 179.48613503 514.85447589 164 528 C163.09121094 528.79792969 162.18242188 529.59585938 161.24609375 530.41796875 C123.14948415 563.6446729 76.98965452 585.58480242 27.75 596.3125 C26.70005859 596.54275879 25.65011719 596.77301758 24.56835938 597.01025391 C21.0543881 597.73903401 17.53589729 598.38578103 14 599 C13.24310883 599.13203827 12.48621765 599.26407654 11.70639038 599.40011597 C-3.04687907 601.89552257 -17.58240246 602.49899582 -32.52954102 602.44604492 C-36.16675812 602.43754845 -39.80239004 602.46641171 -43.43945312 602.49804688 C-66.84175306 602.5681863 -89.22824404 599.19581994 -111.84130859 593.28198242 C-114.69221506 592.90957833 -116.25965389 593.01662221 -119 594 C-121.47497036 595.9243013 -123.62214933 598.13356551 -125.8046875 600.37890625 C-126.4468924 601.02439926 -127.08909729 601.66989227 -127.75076294 602.33494568 C-129.801699 604.40161507 -131.83809745 606.48200802 -133.875 608.5625 C-135.23741247 609.93640893 -136.60068523 611.30946534 -137.96484375 612.68164062 C-139.28722832 614.01746737 -140.60886653 615.35403345 -141.9296875 616.69140625 C-142.53408661 617.30319229 -143.13848572 617.91497833 -143.76119995 618.54530334 C-147.44114993 622.30613797 -150.95731752 626.1738561 -154.38925171 630.16247559 C-162.41497234 639.3181318 -171.40130506 647.53585903 -181 655 C-181.99257813 655.82113281 -182.98515625 656.64226563 -184.0078125 657.48828125 C-204.84030151 674.53098548 -228.76904837 679.40545022 -255.24609375 679.1953125 C-256.63712863 679.19156763 -258.02816621 679.18872767 -259.41920471 679.18673706 C-263.02433977 679.17921626 -266.62930543 679.15967208 -270.234375 679.1373291 C-273.93552359 679.11661678 -277.6367004 679.10768193 -281.33789062 679.09765625 C-288.55866975 679.07641117 -295.77931086 679.04242117 -303 679 C-300.84340441 669.43359496 -290.89507541 661.1379084 -284.57177734 653.82617188 C-283.0550653 652.0639777 -281.55073918 650.29208905 -280.05078125 648.515625 C-274.16841378 641.56311082 -268.10884412 634.82197423 -261.86645508 628.19042969 C-258.41881518 624.52770325 -255.04448707 620.82369909 -251.76171875 617.01171875 C-248.58784865 613.38745466 -245.30446825 609.86194592 -242.0390625 606.3203125 C-240.39265805 604.53337948 -238.76493813 602.73415758 -237.15538025 600.91383362 C-231.01883388 593.99382615 -224.57088722 587.42413948 -218.02734375 580.89453125 C-216.89337379 579.75988539 -215.7595521 578.62509131 -214.62586975 577.49015808 C-212.26676459 575.1295906 -209.9058913 572.77081035 -207.54370117 570.41333008 C-204.5358815 567.41121997 -201.5325931 564.40462313 -198.53061581 561.39667225 C-196.19625915 559.05868135 -193.85950051 556.7231028 -191.5220356 554.38821983 C-190.41426047 553.28110538 -189.30720984 552.17326545 -188.20094109 551.06464577 C-182.83218629 545.68697928 -177.4654426 540.35945097 -171.65724182 535.44926453 C-169.90757337 533.91917255 -168.29749692 532.30052956 -166.6875 530.625 C-155.13863434 518.94459828 -144.62697731 511.66821086 -128.03735352 511.3996582 C-119.40822895 511.58347089 -111.63267278 514.19707904 -103.46655273 516.78930664 C-91.79787857 520.47633728 -80.06388585 522.99257283 -68 525 C-67.21963379 525.13132324 -66.43926758 525.26264648 -65.63525391 525.39794922 C-9.31833102 534.39906243 50.89124488 517.40449294 96.84106445 484.58691406 C116.885783 469.96099967 134.7102431 452.28675323 149 432 C149.44102051 431.38769531 149.88204102 430.77539062 150.33642578 430.14453125 C178.3884051 391.06039838 190.86942507 342.97722505 191.125 295.3125 C191.12983398 294.44963379 191.13466797 293.58676758 191.13964844 292.69775391 C191.13739258 291.88612793 191.13513672 291.07450195 191.1328125 290.23828125 C191.13168457 289.51680908 191.13055664 288.79533691 191.12939453 288.05200195 C190.99533305 285.92598924 190.54019771 284.05547592 190 282 C181.34878823 288.73296001 173.6489731 296.09989765 165.95703125 303.8828125 C164.73690403 305.10923129 163.51624605 306.33512226 162.29508972 307.56051636 C159.10957266 310.75920905 155.92970266 313.96344939 152.75152588 317.16943359 C147.65771368 322.30669768 142.55695067 327.43703712 137.45288658 332.56411362 C135.68689221 334.34020924 133.92441658 336.11973927 132.16230774 337.89968872 C127.23381206 342.86497634 122.28183375 347.72432588 116.95600891 352.26785278 C112.77189705 355.97310058 108.90529255 360.01674396 104.98046875 363.9921875 C104.03214015 364.94748688 103.08342695 365.90240459 102.13435364 366.85696411 C98.1472434 370.86821709 94.16588249 374.88513886 90.18920898 378.90673828 C87.7399482 381.38313455 85.28554684 383.85434488 82.8281498 386.32266617 C81.46476164 387.69508468 80.10705425 389.07313937 78.7495575 390.4513855 C56.35016741 412.93936917 56.35016741 412.93936917 41.1875 413.25 C25.48281978 412.91669218 17.74011106 407.23938766 7 396.125 C5.29413418 394.37519521 3.58583492 392.62775916 1.875 390.8828125 C1.12992188 390.11340332 0.38484375 389.34399414 -0.3828125 388.55126953 C-2.39739216 386.58743022 -4.42238856 384.76301915 -6.55723572 382.938797 C-11.48202375 378.64217526 -16.08699223 374.05317259 -20.70141602 369.42797852 C-21.64668561 368.48406727 -22.59216708 367.54036816 -23.5378418 366.59686279 C-26.08347326 364.05575403 -28.62597487 361.51153591 -31.1677525 358.966573 C-33.84152509 356.29024995 -36.51775801 353.61638887 -39.19358826 350.94212341 C-43.68481254 346.45271302 -48.17393676 341.96121081 -52.66186523 337.46850586 C-57.83369047 332.29123951 -63.00910801 327.11758518 -68.18640572 321.94579178 C-72.64963666 317.48711423 -77.11089667 313.02647164 -81.57054657 308.56421226 C-84.22613706 305.90707122 -86.88237833 303.2505902 -89.54040718 300.59588814 C-92.04043182 298.09877469 -94.53795467 295.59918461 -97.03365326 293.0977478 C-98.37484224 291.75462876 -99.71846162 290.41393795 -101.06217957 289.073349 C-105.38841674 284.73212937 -109.57077766 280.32859866 -113.55335331 275.66883469 C-115.57818153 273.33301656 -117.75071221 271.17141295 -119.9609375 269.01171875 C-120.84523438 268.13966797 -121.72953125 267.26761719 -122.640625 266.36914062 C-124.45370227 264.59102984 -126.26878672 262.81496325 -128.0859375 261.04101562 C-148.74522716 240.63696428 -148.74522716 240.63696428 -149.1875 224.6875 C-148.9798482 213.41767038 -145.02910268 205.85769528 -137.0625 197.9375 C-136.45535156 197.36902344 -135.84820312 196.80054688 -135.22265625 196.21484375 C-133.30635577 194.30527895 -131.56065056 192.35631459 -129.79968262 190.30627441 C-126.34068421 186.33930417 -122.71869938 182.58934914 -118.98242188 178.88476562 C-118.31964737 178.22345139 -117.65687286 177.56213715 -116.97401428 176.88078308 C-115.54890652 175.45945143 -114.12264582 174.03927499 -112.69532776 172.62016296 C-110.43049183 170.36820944 -108.1688985 168.11304304 -105.90808105 165.85705566 C-100.29510128 160.25737327 -94.67667041 154.66317057 -89.05841064 149.06878662 C-84.30067941 144.33085293 -79.54504678 139.59083125 -74.79212952 134.84806824 C-72.57469922 132.63707313 -70.35425586 130.42913559 -68.13366699 128.22131348 C-66.76148793 126.85277027 -65.38945093 125.48408459 -64.01757812 124.11523438 C-63.40854141 123.51136398 -62.7995047 122.90749359 -62.17201233 122.2853241 C-58.48854485 118.60230426 -55.00711471 114.79488744 -51.61591625 110.84076977 C-48.92142678 107.77134414 -46.02060628 104.91691195 -43.11328125 102.05078125 C-42.48898727 101.4302739 -41.8646933 100.80976654 -41.22148132 100.17045593 C-39.25427193 98.21531503 -37.28382051 96.26349512 -35.3125 94.3125 C-32.70149243 91.728197 -30.0938967 89.14051949 -27.48828125 86.55078125 C-26.89654617 85.96734451 -26.3048111 85.38390778 -25.69514465 84.78279114 C-22.56529888 81.67148305 -19.68286301 78.51758627 -17 75 C-24.66187979 73.74908085 -32.25674048 73.85087761 -40 74 C-41.32475342 74.01885254 -41.32475342 74.01885254 -42.67626953 74.03808594 C-78.28240936 74.63405549 -112.66375039 84.05923123 -144 101 C-144.5986084 101.31936523 -145.1972168 101.63873047 -145.81396484 101.96777344 C-185.56314283 123.31034106 -217.04437332 157.41174979 -238 197 C-238.32677734 197.60344238 -238.65355469 198.20688477 -238.99023438 198.82861328 C-250.49285571 220.33478208 -257.91051128 245.17594671 -260.68994141 269.32666016 C-260.97702431 271.80190255 -261.31280103 274.26423024 -261.66796875 276.73046875 C-265.94391658 307.83696464 -260.91249473 339.30492732 -252.8359375 369.41796875 C-250.46380899 379.58265025 -251.17204246 390.35643732 -256.41796875 399.4609375 C-265.85258496 413.33169775 -278.89644503 425.05384855 -290.79638672 436.76000977 C-294.07208269 439.99581279 -297.25809363 443.24144703 -300.24609375 446.74609375 C-305.83425306 453.24022551 -312.08391338 459.13797215 -318.17529297 465.15478516 C-323.70626212 470.62410079 -329.17529759 476.07718069 -334.22460938 482.00195312 C-338.95895512 487.3300452 -344.18824813 492.22094618 -349.26171875 497.22265625 C-353.12739763 501.05486605 -356.95793924 504.86411087 -360.5 509 C-365.71680287 515.09140264 -371.5548774 520.59653402 -377.26171875 526.22265625 C-381.76106617 530.68304828 -386.09645446 535.18302062 -390.21679688 539.99414062 C-394.55342818 544.87225711 -399.3228451 549.35723934 -403.97265625 553.93359375 C-408.24488513 558.16467757 -412.32841345 562.45995783 -416.24414062 567.02148438 C-420.16660578 571.44134778 -424.46948602 575.50581006 -428.68359375 579.64453125 C-432.73855931 583.6555008 -436.58337548 587.75712042 -440.30273438 592.08007812 C-443.05904024 595.19797072 -446.02751868 598.09009723 -449 601 C-453.27746004 605.22816505 -457.40971307 609.48420636 -461.296875 614.078125 C-464.23500094 617.39362491 -467.43957569 620.44633797 -470.58984375 623.55859375 C-473.26854532 626.27202727 -475.74608118 629.10777023 -478.22265625 632.00390625 C-480.87694956 634.98488181 -483.72988637 637.75287483 -486.59375 640.53125 C-488.57238834 642.56128155 -490.43672896 644.6222037 -492.29296875 646.76171875 C-496.01941143 651.0560765 -499.89724622 655.19057594 -503.8125 659.3125 C-505.13253161 660.70345868 -506.45152517 662.09540313 -507.76953125 663.48828125 C-508.45966309 664.19525146 -509.14979492 664.90222168 -509.86083984 665.63061523 C-512.09896564 668.01258784 -512.09896564 668.01258784 -514.08056641 670.96508789 C-517.48153954 675.52189207 -520.33722726 679.02103516 -526.13012695 679.90600586 C-531.01655647 680.29286465 -535.86216002 680.0583074 -540.75 679.8125 C-542.41656129 679.77437287 -544.08324198 679.74113799 -545.75 679.71289062 C-575.85570311 679.02883046 -575.85570311 679.02883046 -585.1015625 671.2265625 C-589.19811009 666.42196965 -591.14166176 659.14591929 -591.5 652.875 C-588.64986371 630.78644374 -564.210091 609.96198717 -548.91772461 594.95019531 C-547.12080809 593.1228536 -545.45081922 591.24292775 -543.7890625 589.29296875 C-539.94417611 584.87142568 -535.852853 580.74296193 -531.6875 576.625 C-530.91494873 575.85623535 -530.14239746 575.0874707 -529.34643555 574.29541016 C-526.07623964 571.0414017 -522.8000651 567.79343734 -519.52441406 564.54492188 C-517.11834715 562.15704648 -514.71536962 559.76609207 -512.3125 557.375 C-511.58313232 556.65393066 -510.85376465 555.93286133 -510.10229492 555.18994141 C-506.08323425 551.18991082 -502.26714816 547.08564926 -498.56567383 542.79052734 C-496.53461596 540.46778005 -494.3856392 538.2894369 -492.1875 536.125 C-491.33929688 535.28453125 -490.49109375 534.4440625 -489.6171875 533.578125 C-487.87239583 531.859375 -486.12760417 530.140625 -484.3828125 528.421875 C-480.69490795 524.76759876 -477.04845429 521.13597286 -473.68359375 517.1796875 C-470.59025254 513.57124206 -467.28576532 510.22386412 -463.91015625 506.8828125 C-463.35766205 506.33582703 -462.80516785 505.78884155 -462.2359314 505.22528076 C-459.93702537 502.95393936 -457.63468869 500.68615874 -455.32739258 498.42333984 C-449.05999179 492.26866528 -443.10761551 486.15075832 -437.73266602 479.18017578 C-435.20113141 475.99480111 -432.36982387 473.18771115 -429.4375 470.375 C-426.13610231 467.18297377 -422.94577635 463.97949949 -419.97265625 460.4765625 C-413.77765432 453.30232019 -406.84072865 446.78830198 -400.10644531 440.12695312 C-398.25633381 438.29510246 -396.40937088 436.46011693 -394.5625 434.625 C-394.00812256 434.0789209 -393.45374512 433.5328418 -392.88256836 432.97021484 C-390.0409769 430.14608782 -387.33293212 427.26349526 -384.72314453 424.22314453 C-380.35072653 419.17073686 -375.61122315 414.50549205 -370.8671875 409.8046875 C-369.90238319 408.84430184 -368.93788095 407.88361263 -367.97366333 406.92263794 C-364.94361232 403.9039002 -361.90961121 400.88915261 -358.875 397.875 C-355.3467362 394.37046266 -351.82017957 390.86424084 -348.29782486 387.35376358 C-346.8990969 385.96145056 -345.49729731 384.57222549 -344.09542847 383.18307495 C-336.24834736 376.40473367 -336.24834736 376.40473367 -331.66015625 367.68139648 C-331.79292969 366.93962158 -331.92570312 366.19784668 -332.0625 365.43359375 C-332.19914062 364.57233887 -332.33578125 363.71108398 -332.4765625 362.82373047 C-332.64929688 361.89189941 -332.82203125 360.96006836 -333 360 C-333.31493013 357.90791646 -333.62731543 355.81544866 -333.9375 353.72265625 C-334.46542077 350.38769409 -335.00135497 347.0541002 -335.5390625 343.72070312 C-337.71629628 329.95051187 -338.20390941 316.54215363 -338.1875 302.625 C-338.18689575 301.68425629 -338.1862915 300.74351257 -338.18566895 299.77426147 C-338.16233242 286.42306458 -338.00693465 273.22504494 -336 260 C-335.87109375 259.11538086 -335.7421875 258.23076172 -335.609375 257.31933594 C-326.94642021 199.26550697 -302.60587528 142.47888373 -262.19140625 99.33984375 C-260.25329266 97.27044974 -258.39965096 95.1585438 -256.5625 93 C-249.66562443 85.07835282 -242.06295389 77.72354872 -234 71 C-233.484375 70.55994629 -232.96875 70.11989258 -232.4375 69.66650391 C-221.24885783 60.13555398 -209.40110246 51.87502839 -197 44 C-196.2879541 43.5452832 -195.5759082 43.09056641 -194.84228516 42.62207031 C-137.26112993 6.22999699 -67.28529499 -7.48309198 0 0 Z " fill="#FFFFFF" transform="translate(637,252)"/>
<path d="M0 0 C1.02577148 0.19867676 2.05154297 0.39735352 3.10839844 0.60205078 C67.67564513 13.51743501 125.30122539 49.45405737 165 102 C165.41604492 102.54317871 165.83208984 103.08635742 166.26074219 103.64599609 C178.29837058 119.44001368 187.38048939 137.17328488 196 155 C202.15940607 154.36625764 207.94542908 153.09287502 213.9375 151.5625 C257.44637334 140.95752041 303.76652127 147.9806274 342.33276367 170.79174805 C353.99200155 177.91323064 364.12978877 186.60378197 374 196 C375.15242187 197.05574219 375.15242187 197.05574219 376.328125 198.1328125 C403.92492413 224.24057571 417.51754576 261.308675 423 298 C423.11859375 298.78536133 423.2371875 299.57072266 423.359375 300.37988281 C423.93897598 304.24906438 424.4890954 308.12115852 425 312 C426.24652344 312.4125 427.49304687 312.825 428.77734375 313.25 C470.81514663 327.39701772 509.81497424 353.79491154 536 390 C536.47791992 390.66064453 536.95583984 391.32128906 537.44824219 392.00195312 C549.27060604 408.57040767 559.26848947 426.76130222 566 446 C566.36617432 447.02528809 566.36617432 447.02528809 566.73974609 448.07128906 C573.51586871 467.26387418 578.04236184 487.74940544 578.23828125 508.15234375 C578.24812042 509.00152374 578.25795959 509.85070374 578.26809692 510.72561646 C578.44356212 529.81218521 578.30567193 548.30293648 574 567 C573.64591064 568.54131592 573.64591064 568.54131592 573.28466797 570.11376953 C566.39056822 598.98364564 554.11743418 626.42915753 536 650 C534.96746094 651.34964844 534.96746094 651.34964844 533.9140625 652.7265625 C521.45563735 668.63198275 507.30240059 683.05869129 491 695 C489.41251953 696.16982422 489.41251953 696.16982422 487.79296875 697.36328125 C468.57958434 711.08035841 447.40431132 720.78292493 425 728 C424.25137695 728.24911133 423.50275391 728.49822266 422.73144531 728.75488281 C397.20906729 737.15623576 369.7271644 735.28729147 343.2010498 735.19561768 C339.28221647 735.18483784 335.36341802 735.18518955 331.44457245 735.18563652 C310.60929817 735.1849954 289.81375377 735.04075921 269 734 C274.04716549 724.93378028 279.39895587 716.17058647 285.078125 707.48828125 C288.10446225 702.85814818 291.05472751 698.18195944 294 693.5 C295.00637939 691.91007331 296.0128894 690.32022928 297.01953125 688.73046875 C298.9985493 685.60105376 300.95055741 682.45686286 302.88671875 679.30078125 C312.28598125 664.12849986 323.5589505 653.7487682 341.23828125 648.83203125 C351.58786964 646.54286995 362.13772795 645.32156827 372.6875 644.39453125 C386.79180228 643.11784872 399.13537397 641.04513642 412 635 C412.74459473 634.65130859 413.48918945 634.30261719 414.25634766 633.94335938 C445.17503333 619.1344096 469.07774619 593.25101012 480.5 560.8828125 C491.38609899 527.79707144 488.11118585 493.03935965 472.99316406 461.92724609 C462.87563539 442.29406729 447.48175653 425.90605029 429 414 C428.3905957 413.60538574 427.78119141 413.21077148 427.15332031 412.80419922 C408.11281084 400.72060717 387.68654569 396.71320911 365.609375 394.30078125 C335.7069595 390.99521959 335.7069595 390.99521959 328 382 C321.37988161 372.29049302 324.52153022 360.29895774 326.50439453 349.55517578 C327.31863662 345.35721632 328.21960339 341.17907409 329.125 337 C333.7180512 315.53992112 331.94869726 294.94366562 320.72265625 275.62109375 C308.65670675 257.26224541 290.78435452 244.60994672 269.2421875 239.890625 C248.84654322 236.02630784 228.47475818 239.91350764 211 251 C207.27145307 253.65603197 203.68340532 256.48352429 200.10302734 259.3347168 C187.38313942 269.3783687 175.99645226 271.98924464 160 271 C149.77199541 269.45664381 138.92354038 263.09875731 132.4453125 255.07421875 C125.82743344 245.80589559 123.39087503 235.03666931 120.75 224.125 C116.2314449 206.16764937 109.92703635 189.23557319 101 173 C100.65356445 172.36900391 100.30712891 171.73800781 99.95019531 171.08789062 C84.77264052 143.84327718 62.4487663 122.61138794 35 108 C34.01644531 107.46761719 33.03289062 106.93523437 32.01953125 106.38671875 C-7.67387376 85.656155 -55.16951925 82.62211235 -97.68994141 95.8359375 C-115.53806606 101.79960584 -133.32662322 110.09745792 -148 122 C-148.83660156 122.63679688 -149.67320312 123.27359375 -150.53515625 123.9296875 C-171.60200343 140.37361828 -186.16345269 160.28960217 -198 184 C-208.11982671 184.0233532 -218.23964682 184.04103061 -228.35949516 184.05181217 C-233.06047403 184.05699139 -237.76143422 184.06399681 -242.46240234 184.07543945 C-247.01415307 184.0864473 -251.56588605 184.092314 -256.11764908 184.09487724 C-257.83883061 184.09669973 -259.56001136 184.10025686 -261.28118515 184.10573006 C-272.89058016 184.14111862 -284.41533176 183.76503549 -296 183 C-288.41685395 148.17169352 -269.82205838 116.96479831 -247 90 C-246.53835449 89.44812012 -246.07670898 88.89624023 -245.60107422 88.32763672 C-236.78310049 77.78737977 -227.59782297 67.79654283 -217 59 C-216.4834082 58.56961426 -215.96681641 58.13922852 -215.43457031 57.69580078 C-206.34586132 50.16100077 -197.00161182 43.27309576 -187 37 C-186.35901367 36.59571777 -185.71802734 36.19143555 -185.05761719 35.77490234 C-131.24234007 2.15034955 -62.71402605 -12.29318616 0 0 Z " fill="#FFFFFF" transform="translate(602,3)"/>
<path d="M0 0 C3.66376891 0.00260255 7.32753582 0.00016632 10.99130487 -0.00138617 C17.10018615 -0.00317866 23.20905512 -0.00087271 29.31793451 0.00395441 C36.3735946 0.00946529 43.4292261 0.00757415 50.48488557 0.00212801 C56.59846504 -0.00240032 62.71203588 -0.00305725 68.82561648 -0.00043333 C72.45479357 0.00112165 76.08395712 0.00134311 79.71313334 -0.00196981 C83.7230196 -0.00537928 87.73285541 -0.00066403 91.7427392 0.00493097 C92.93827417 0.00290674 94.13380915 0.00088251 95.36557245 -0.00120306 C96.44957331 0.00161676 97.53357416 0.00443659 98.65042353 0.00734186 C100.06755797 0.0079074 100.06755797 0.0079074 101.5133214 0.00848436 C103.76275873 0.1343255 103.76275873 0.1343255 105.76275873 1.1343255 C105.21555405 9.64918098 103.47866034 17.83322665 101.57525873 26.1343255 C101.34141474 27.16029337 101.34141474 27.16029337 101.10284662 28.20698786 C96.19120988 49.63528679 90.56291688 73.11685134 70.63775873 85.6343255 C58.04035097 92.48283968 43.00293756 91.29370754 29.00978899 91.54931688 C26.23385295 91.60049434 23.45807087 91.65706732 20.68226862 91.71502924 C12.79819257 91.87892144 4.91398022 92.03511502 -2.97039557 92.18388605 C-29.20376899 92.57522149 -29.20376899 92.57522149 -55.38958502 94.06791925 C-56.28321249 94.14131021 -57.17683996 94.21470118 -58.09754705 94.2903161 C-98.4833925 98.12206207 -138.06627687 123.31514171 -163.54583502 154.064013 C-185.36672078 181.24239084 -198.41405942 213.27153104 -200.23724127 248.1343255 C-200.27978033 248.9180755 -200.32231939 249.7018255 -200.36614752 250.5093255 C-201.54872964 295.92047916 -179.70211858 338.85293271 -149.11224127 371.1343255 C-148.15456672 372.13495643 -147.19627452 373.13499673 -146.23724127 374.1343255 C-145.45349127 374.9593255 -144.66974127 375.7843255 -143.86224127 376.6343255 C-139.20299797 381.42669004 -134.26565864 385.71691774 -129.04192877 389.8843255 C-127.20991006 391.35402296 -125.40105185 392.85319879 -123.62005377 394.3843255 C-98.58008438 415.78346848 -69.13520632 422.74092497 -37.23724127 426.1343255 C-42.03978907 431.9124968 -47.19330431 437.23600325 -52.51067877 442.5405755 C-53.39325354 443.424107 -54.2758283 444.30763849 -55.18514776 445.21794367 C-57.51787418 447.55152033 -59.85300468 449.88265901 -62.18896246 452.21299982 C-63.60960004 453.63168791 -65.02827668 455.05230597 -66.44622564 456.47368097 C-69.19418327 459.22785354 -71.94562401 461.97849811 -74.69817877 464.7280755 C-75.53489111 465.56681208 -76.37160345 466.40554865 -77.23367071 467.26970148 C-92.47386221 482.44990958 -105.78337753 491.4286093 -127.86395025 491.44902277 C-168.85353811 490.75802623 -203.44151419 460.72904347 -230.58099127 433.04448175 C-236.31530532 427.08157626 -241.41323526 420.84527264 -246.23724127 414.1343255 C-246.97458502 413.14174738 -247.71192877 412.14916925 -248.47161627 411.126513 C-270.94758357 379.96302643 -284.20586126 343.68384788 -291.23724127 306.1343255 C-291.53308111 304.67724176 -291.53308111 304.67724176 -291.83489752 303.19072199 C-293.87006598 291.62291827 -293.53783598 279.9027732 -293.49798346 268.19609308 C-293.48731587 264.47286229 -293.4978952 260.75011927 -293.51067877 257.02690363 C-293.52272553 239.18289821 -292.82009026 221.85014834 -288.61224127 204.4468255 C-288.35209234 203.35507013 -288.09194342 202.26331476 -287.82391119 201.13847589 C-279.52166689 167.37212139 -265.43444369 134.83156396 -244.23724127 107.1343255 C-243.80588873 106.56165949 -243.37453619 105.98899347 -242.93011236 105.39897394 C-236.20341555 96.48407455 -228.98652237 88.17127776 -221.23724127 80.1343255 C-220.62187506 79.49172785 -220.00650885 78.84913019 -219.37249517 78.18705988 C-210.54610774 69.01096011 -201.50616123 60.66115997 -191.23724127 53.1343255 C-190.66795904 52.70957941 -190.09867682 52.28483332 -189.51214361 51.84721613 C-180.76952617 45.33030592 -171.71317065 39.52395393 -162.23724127 34.1343255 C-161.60543951 33.76984308 -160.97363775 33.40536066 -160.32269049 33.02983332 C-126.55411162 13.70182126 -86.57396285 1.70165709 -47.69769049 0.58012629 C-47.00254331 0.55916399 -46.30739614 0.5382017 -45.5911839 0.51660419 C-30.39507513 0.06417484 -15.20203718 -0.01426806 0 0 Z " fill="#FFFFFF" transform="translate(293.23724126815796,215.86567449569702)"/>
</svg>
